<svg width="150" height="183" viewBox="0 0 150 183" fill="none" xmlns="http://www.w3.org/2000/svg">
<rect width="150" height="183" fill="white"/>
<g clip-path="url(#clip0_164_2)">
<rect width="150" height="150" fill="#4F46E5"/>
<rect x="106.572" y="44.1006" width="16" height="16" transform="rotate(30 106.572 44.1006)" fill="#A3E635"/>
<rect x="122.16" y="53.1006" width="16" height="16" transform="rotate(30 122.16 53.1006)" fill="#A3E635"/>
<rect x="137.749" y="62.1006" width="16" height="16" transform="rotate(30 137.749 62.1006)" fill="#A3E635"/>
<rect x="97.5718" y="59.6891" width="16" height="16" transform="rotate(30 97.5718 59.6891)" fill="#A3E635"/>
<rect x="144.337" y="86.6891" width="16" height="16" transform="rotate(30 144.337 86.6891)" fill="#A3E635"/>
<rect x="88.5718" y="75.2776" width="16" height="16" transform="rotate(30 88.5718 75.2776)" fill="#A3E635"/>
<rect x="150.926" y="111.278" width="16" height="16" transform="rotate(30 150.926 111.278)" fill="#A3E635"/>
<rect x="79.5718" y="90.866" width="16" height="16" transform="rotate(30 79.5718 90.866)" fill="#A3E635"/>
<rect x="141.926" y="126.866" width="16" height="16" transform="rotate(30 141.926 126.866)" fill="#A3E635"/>
<rect x="70.5718" y="106.454" width="16" height="16" transform="rotate(30 70.5718 106.454)" fill="#A3E635"/>
<rect x="117.337" y="133.454" width="16" height="16" transform="rotate(30 117.337 133.454)" fill="#A3E635"/>
<rect x="61.5718" y="122.043" width="16" height="16" transform="rotate(30 61.5718 122.043)" fill="#A3E635"/>
<rect x="77.1603" y="131.043" width="16" height="16" transform="rotate(30 77.1603 131.043)" fill="#A3E635"/>
<rect x="92.7487" y="140.043" width="16" height="16" transform="rotate(30 92.7487 140.043)" fill="#A3E635"/>
<rect x="-3" y="-11" width="16" height="16" fill="#A3E635"/>
<rect x="33" y="-11" width="16" height="16" fill="#A3E635"/>
<rect x="69" y="-11" width="16" height="16" fill="#A3E635"/>
<rect x="-3" y="7" width="16" height="16" fill="#A3E635"/>
<rect x="33" y="7" width="16" height="16" fill="#A3E635"/>
<rect x="69" y="7" width="16" height="16" fill="#A3E635"/>
<rect x="-3" y="25" width="16" height="16" fill="#A3E635"/>
<rect x="33" y="25" width="16" height="16" fill="#A3E635"/>
<rect x="69" y="25" width="16" height="16" fill="#A3E635"/>
<rect x="-3" y="43" width="16" height="16" fill="#A3E635"/>
<rect x="33" y="43" width="16" height="16" fill="#A3E635"/>
<rect x="69" y="43" width="16" height="16" fill="#A3E635"/>
<rect x="15" y="61" width="16" height="16" fill="#A3E635"/>
<rect x="51" y="61" width="16" height="16" fill="#A3E635"/>
</g>
<path d="M7.34974 173L2.97971 157.727H6.50706L9.03511 168.339H9.16189L11.951 157.727H14.9712L17.7528 168.362H17.887L20.4151 157.727H23.9424L19.5724 173H16.4254L13.517 163.015H13.3977L10.4968 173H7.34974ZM25.6707 173V157.727H28.8997V164.029H35.4548V157.727H38.6764V173H35.4548V166.691H28.8997V173H25.6707ZM43.9711 173H40.5109L45.7832 157.727H49.9445L55.2094 173H51.7492L47.9235 161.217H47.8042L43.9711 173ZM43.7548 166.997H51.9281V169.517H43.7548V166.997ZM54.5997 160.39V157.727H67.1431V160.39H62.4673V173H59.2755V160.39H54.5997ZM68.6271 160.39V157.727H81.1704V160.39H76.4946V173H73.3029V160.39H68.6271ZM84.0024 173H80.5421L85.8145 157.727H89.9757L95.2406 173H91.7804L87.9548 161.217H87.8354L84.0024 173ZM83.7861 166.997H91.9594V169.517H83.7861V166.997ZM102.314 173H97.6009V157.727H102.523C104.004 157.727 105.272 158.033 106.326 158.645C107.38 159.251 108.188 160.124 108.75 161.262C109.311 162.396 109.592 163.753 109.592 165.334C109.592 166.925 109.309 168.294 108.742 169.443C108.175 170.586 107.35 171.466 106.266 172.083C105.183 172.694 103.865 173 102.314 173ZM99.4503 171.359H102.195C103.457 171.359 104.504 171.116 105.334 170.629C106.164 170.141 106.783 169.448 107.191 168.548C107.599 167.648 107.803 166.577 107.803 165.334C107.803 164.101 107.601 163.039 107.199 162.15C106.796 161.255 106.194 160.569 105.394 160.091C104.593 159.609 103.597 159.368 102.403 159.368H99.4503V171.359ZM112.603 173H110.664L116.272 157.727H118.181L123.789 173H121.85L117.287 160.143H117.167L112.603 173ZM113.319 167.034H121.135V168.675H113.319V167.034ZM123.549 159.368V157.727H135.003V159.368H130.201V173H128.351V159.368H123.549ZM136.7 173H134.761L140.369 157.727H142.278L147.886 173H145.947L141.383 160.143H141.264L136.7 173ZM137.416 167.034H145.231V168.675H137.416V167.034Z" fill="black"/>
<defs>
<clipPath id="clip0_164_2">
<rect width="150" height="150" fill="white"/>
</clipPath>
</defs>
</svg>
