<svg width="150" height="150" viewBox="0 0 150 150" fill="none" xmlns="http://www.w3.org/2000/svg">
<path d="M62.061 34.751C62.061 37.4139 60.6227 39.5726 58.8486 39.5726C57.0744 39.5726 55.6361 37.4139 55.6361 34.751C55.6361 32.0882 57.0744 29.9295 58.8486 29.9295C60.6227 29.9295 62.061 32.0882 62.061 34.751Z" fill="#2E2F3F"/>
<path d="M94.1852 34.751C94.1852 37.4139 92.7469 39.5726 90.9727 39.5726C89.1986 39.5726 87.7603 37.4139 87.7603 34.751C87.7603 32.0882 89.1986 29.9295 90.9727 29.9295C92.7469 29.9295 94.1852 32.0882 94.1852 34.751Z" fill="#2E2F3F"/>
<path d="M69.7567 148.683C80.273 149.487 96.023 148.862 94.5421 145.647C93.0612 142.433 71.3655 146.058 59.0487 139.219C53.5213 136.149 50.6742 133.842 46.1774 129.397C41.7637 125.033 39.4234 122.296 36.3616 116.896C31.8683 108.972 30.0562 103.673 29.5799 94.5743C29.2421 88.1215 31.543 78.1452 31.543 78.1452C31.543 78.1452 34.1923 68.4717 36.3616 62.4305C38.6858 55.9583 43.1434 46.1799 43.1434 46.1799C43.1434 46.1799 44.8912 48.2432 46.1774 49.3943C50.3456 53.1251 57.7707 57.6705 59.0487 55.6754C60.3266 53.6802 51.8378 50.8297 49.2113 46.1799C47.21 42.6369 46.121 40.2799 46.1774 36.2105C46.2313 32.3178 46.9437 29.8786 49.2113 26.7151C52.5151 22.106 56.4878 18.9241 62.061 19.96C64.9704 20.5008 68.6643 23.6792 68.6643 23.6792C68.6643 23.6792 71.4215 27.1069 71.8767 29.7509C72.5615 33.7281 66.6249 36.0907 68.6643 39.5726C70.1026 42.0282 75.1108 42.9656 75.1108 42.9656C75.1108 42.9656 79.9326 41.9604 81.3355 39.5726C83.3796 36.0934 77.4383 33.7281 78.1231 29.7509C78.5783 27.1069 79.4973 25.6324 81.3355 23.6792C83.3228 21.5677 84.9225 20.5512 87.7603 19.96C93.431 18.7786 97.6456 21.9667 100.967 26.7151C103.186 29.8876 103.771 32.3384 103.822 36.2105C103.876 40.2602 102.922 42.6336 100.967 46.1799C98.3918 50.8515 90.1476 54.2159 91.1512 55.6754C92.1549 57.1348 99.8816 53.2653 103.822 49.3943C107.93 45.3599 109.351 41.8682 110.426 36.2105C111.83 28.8208 110.733 23.7996 107.035 17.2505C103.067 10.2225 98.5497 7.25305 91.1512 4.03578C85.3042 1.4932 81.486 1.00157 75.1108 1C68.7272 0.998439 64.9042 1.49207 59.0487 4.03581C51.643 7.25295 47.1512 10.2377 43.1434 17.2505C39.4054 23.7911 40.288 34.5725 39.5741 36.2105C38.8602 37.8485 26.9029 59.0375 26.9029 59.0375C26.9029 59.0375 14.5586 77.6709 14.0532 91.1813C13.5657 104.211 16.402 112.338 23.6904 123.147C30.1301 132.696 35.7016 137.28 45.9989 142.433C54.579 146.727 60.8572 148.003 69.7567 148.683Z" fill="#2E2F3F"/>
<path d="M69.7567 148.683C80.273 149.487 96.023 148.862 94.5421 145.647C93.0612 142.433 71.3655 146.058 59.0487 139.219C53.5213 136.149 50.6742 133.842 46.1774 129.397C41.7637 125.033 39.4234 122.296 36.3616 116.896C31.8683 108.972 30.0562 103.673 29.5799 94.5743C29.2421 88.1215 31.543 78.1452 31.543 78.1452C31.543 78.1452 34.1923 68.4717 36.3616 62.4305C38.6858 55.9583 43.1434 46.1799 43.1434 46.1799C43.1434 46.1799 44.8912 48.2432 46.1774 49.3943C50.3456 53.1251 57.7707 57.6705 59.0487 55.6754C60.3266 53.6802 51.8378 50.8297 49.2113 46.1799C47.21 42.6369 46.121 40.2799 46.1774 36.2105C46.2313 32.3178 46.9437 29.8786 49.2113 26.7151C52.5151 22.106 56.4878 18.9241 62.061 19.96C64.9704 20.5008 68.6643 23.6792 68.6643 23.6792C68.6643 23.6792 71.4215 27.1069 71.8767 29.7509C72.5615 33.7281 66.6249 36.0907 68.6643 39.5726C70.1026 42.0282 75.1108 42.9656 75.1108 42.9656C75.1108 42.9656 79.9326 41.9604 81.3355 39.5726C83.3796 36.0934 77.4383 33.7281 78.1231 29.7509C78.5783 27.1069 79.4973 25.6324 81.3355 23.6792C83.3228 21.5677 84.9225 20.5512 87.7603 19.96C93.431 18.7786 97.6456 21.9667 100.967 26.7151C103.186 29.8876 103.771 32.3384 103.822 36.2105C103.876 40.2602 102.922 42.6336 100.967 46.1799C98.3918 50.8515 90.1476 54.2159 91.1512 55.6754C92.1549 57.1348 99.8816 53.2653 103.822 49.3943C107.93 45.3599 109.351 41.8682 110.426 36.2105C111.83 28.8208 110.733 23.7996 107.035 17.2505C103.067 10.2225 98.5497 7.25305 91.1512 4.03578C85.3042 1.4932 81.486 1.00157 75.1108 1C68.7272 0.998439 64.9042 1.49207 59.0487 4.03581C51.643 7.25295 47.1512 10.2377 43.1434 17.2505C39.4054 23.7911 40.288 34.5725 39.5741 36.2105C38.8602 37.8485 26.9029 59.0375 26.9029 59.0375C26.9029 59.0375 14.5586 77.6709 14.0532 91.1813C13.5657 104.211 16.402 112.338 23.6904 123.147C30.1301 132.696 35.7016 137.28 45.9989 142.433C54.579 146.727 60.8572 148.003 69.7567 148.683Z" fill="#2E2F3F"/>
<path d="M87.939 34.751C87.939 37.4139 89.3773 39.5726 91.1514 39.5726C92.9256 39.5726 94.3639 37.4139 94.3639 34.751C94.3639 32.0882 92.9256 29.9295 91.1514 29.9295C89.3773 29.9295 87.939 32.0882 87.939 34.751Z" fill="#2E2F3F"/>
<path d="M55.8148 34.751C55.8148 37.4139 57.2531 39.5726 59.0273 39.5726C60.8014 39.5726 62.2397 37.4139 62.2397 34.751C62.2397 32.0882 60.8014 29.9295 59.0273 29.9295C57.2531 29.9295 55.8148 32.0882 55.8148 34.751Z" fill="#2E2F3F"/>
<path d="M80.2433 148.683C69.727 149.487 53.977 148.862 55.4579 145.647C56.9388 142.433 78.6345 146.058 90.9513 139.219C96.4787 136.149 99.3258 133.842 103.823 129.397C108.236 125.033 110.577 122.296 113.638 116.896C118.132 108.972 119.944 103.673 120.42 94.5743C120.758 88.1215 118.457 78.1452 118.457 78.1452C118.457 78.1452 115.808 68.4717 113.638 62.4305C111.314 55.9583 106.857 46.1799 106.857 46.1799C106.857 46.1799 105.109 48.2432 103.822 49.3943C99.6542 53.1251 92.2293 57.6705 90.9513 55.6754C89.6734 53.6802 98.1622 50.8297 100.789 46.1799C102.79 42.6369 103.879 40.2799 103.822 36.2105C103.769 32.3178 103.056 29.8786 100.789 26.7151C97.4849 22.106 93.5122 18.9241 87.939 19.96C85.0296 20.5008 81.3355 23.6792 81.3355 23.6792C81.3355 23.6792 78.5783 27.1069 78.1231 29.7509C77.4383 33.7281 83.3749 36.0907 81.3355 39.5726C79.8972 42.0282 74.8892 42.9656 74.8892 42.9656C74.8892 42.9656 70.0672 41.9604 68.6643 39.5726C66.6202 36.0934 72.5615 33.7281 71.8767 29.7509C71.4215 27.1069 70.5025 25.6324 68.6643 23.6792C66.677 21.5677 65.0775 20.5512 62.2397 19.96C56.569 18.7786 52.3544 21.9667 49.0331 26.7151C46.8139 29.8876 46.2283 32.3384 46.1774 36.2105C46.1241 40.2602 47.0781 42.6336 49.0331 46.1799C51.6082 50.8515 59.8524 54.2159 58.8488 55.6754C57.8451 57.1348 50.1182 53.2653 46.1774 49.3943C42.0702 45.3599 40.6488 41.8682 39.5741 36.2105C38.1703 28.8208 39.2675 23.7996 42.9651 17.2505C46.9331 10.2225 51.4503 7.25305 58.8488 4.03578C64.6958 1.4932 68.514 1.00157 74.8892 1C81.2728 0.998439 85.0958 1.49207 90.9513 4.03581C98.357 7.25295 102.849 10.2377 106.857 17.2505C110.595 23.7911 109.712 34.5725 110.426 36.2105C111.14 37.8485 123.097 59.0375 123.097 59.0375C123.097 59.0375 135.441 77.6709 135.947 91.1813C136.434 104.211 133.598 112.338 126.31 123.147C119.87 132.696 114.298 137.28 104.001 142.433C95.421 146.727 89.1428 148.003 80.2433 148.683Z" fill="#2E2F3F"/>
<path d="M80.2433 148.683C69.727 149.487 53.977 148.862 55.4579 145.647C56.9388 142.433 78.6345 146.058 90.9513 139.219C96.4787 136.149 99.3258 133.842 103.823 129.397C108.236 125.033 110.577 122.296 113.638 116.896C118.132 108.972 119.944 103.673 120.42 94.5743C120.758 88.1215 118.457 78.1452 118.457 78.1452C118.457 78.1452 115.808 68.4717 113.638 62.4305C111.314 55.9583 106.857 46.1799 106.857 46.1799C106.857 46.1799 105.109 48.2432 103.822 49.3943C99.6542 53.1251 92.2293 57.6705 90.9513 55.6754C89.6734 53.6802 98.1622 50.8297 100.789 46.1799C102.79 42.6369 103.879 40.2799 103.822 36.2105C103.769 32.3178 103.056 29.8786 100.789 26.7151C97.4849 22.106 93.5122 18.9241 87.939 19.96C85.0296 20.5008 81.3355 23.6792 81.3355 23.6792C81.3355 23.6792 78.5783 27.1069 78.1231 29.7509C77.4383 33.7281 83.3749 36.0907 81.3355 39.5726C79.8972 42.0282 74.8892 42.9656 74.8892 42.9656C74.8892 42.9656 70.0672 41.9604 68.6643 39.5726C66.6202 36.0934 72.5615 33.7281 71.8767 29.7509C71.4215 27.1069 70.5025 25.6324 68.6643 23.6792C66.677 21.5677 65.0775 20.5512 62.2397 19.96C56.569 18.7786 52.3544 21.9667 49.0331 26.7151C46.8139 29.8876 46.2283 32.3384 46.1774 36.2105C46.1241 40.2602 47.0781 42.6336 49.0331 46.1799C51.6082 50.8515 59.8524 54.2159 58.8488 55.6754C57.8451 57.1348 50.1182 53.2653 46.1774 49.3943C42.0702 45.3599 40.6488 41.8682 39.5741 36.2105C38.1703 28.8208 39.2675 23.7996 42.9651 17.2505C46.9331 10.2225 51.4503 7.25305 58.8488 4.03578C64.6958 1.4932 68.514 1.00157 74.8892 1C81.2728 0.998439 85.0958 1.49207 90.9513 4.03581C98.357 7.25295 102.849 10.2377 106.857 17.2505C110.595 23.7911 109.712 34.5725 110.426 36.2105C111.14 37.8485 123.097 59.0375 123.097 59.0375C123.097 59.0375 135.441 77.6709 135.947 91.1813C136.434 104.211 133.598 112.338 126.31 123.147C119.87 132.696 114.298 137.28 104.001 142.433C95.421 146.727 89.1428 148.003 80.2433 148.683Z" fill="#2E2F3F"/>
</svg>
