<svg width="550" height="284" viewBox="0 0 550 284" fill="none" xmlns="http://www.w3.org/2000/svg">
<path d="M121.93 232.282C118.699 233.471 113.377 233.471 110.146 232.282C82.5847 222.474 21 181.558 21 112.207C21 81.5941 44.6645 56.8262 73.8412 56.8262C91.1381 56.8262 106.439 65.5445 116.038 79.0183C125.637 65.5445 141.033 56.8262 158.235 56.8262C187.411 56.8262 211.076 81.5941 211.076 112.207C211.076 181.558 149.491 222.474 121.93 232.282Z" fill="#FDB1BE"/>
<path d="M313.285 239.501C334.441 239.501 350.223 226.962 353.197 207.982H333.984C331.697 216.379 324.035 221.556 313.628 221.556C300.019 221.556 291.556 211.548 291.556 195.558C291.556 179.339 299.904 169.561 313.628 169.561C323.806 169.561 331.011 174.392 333.527 182.905H353.082C350.452 163.809 335.242 151.616 314.085 151.616C288.811 151.616 272 169.101 272 195.674C272 222.591 287.896 239.501 313.285 239.501ZM379.566 239.616C388.143 239.616 395.691 235.82 397.521 230.528L398.664 238.121H414.218V204.531C414.218 188.081 404.84 178.764 388.258 178.764C371.904 178.764 361.268 187.276 361.268 200.275H375.906C375.906 195.098 379.909 192.223 387.343 192.223C393.632 192.223 397.063 195.213 397.063 200.85V201.77L381.053 203.036C367.329 204.071 359.896 210.628 359.896 221.211C359.896 232.484 367.444 239.616 379.566 239.616ZM385.742 226.502C380.367 226.502 377.851 224.547 377.851 220.406C377.851 216.724 380.595 214.999 388.258 214.309L397.178 213.504V216.609C397.178 223.166 392.489 226.502 385.742 226.502ZM466.19 180.604C463.788 180.029 461.501 179.799 459.442 179.799C451.78 179.799 446.748 183.595 444.346 189.232L443.432 180.719H426.849V238.121H444.461V213.158C444.461 201.77 450.522 197.284 460.586 197.284H466.19V180.604ZM499.952 239.616C515.62 239.616 526.941 231.449 529 218.68H512.875C511.617 222.821 506.928 225.237 500.295 225.237C492.519 225.237 488.287 221.671 487.258 214.079L528.771 213.849V209.362C528.771 190.612 517.564 178.764 499.609 178.764C482.34 178.764 470.332 191.302 470.332 209.247C470.332 226.962 482.684 239.616 499.952 239.616ZM499.723 193.143C506.814 193.143 511.274 197.054 511.274 203.151H487.487C488.859 196.249 492.747 193.143 499.723 193.143Z" fill="#FFE7EB"/>
<path d="M294.856 138.616V114.975C294.856 105.724 294.742 98.6426 293.718 92.361L311.46 138.616H328.292L346.148 92.361C345.238 98.6426 345.238 102.64 345.238 120.913V138.616H363.093V54.1007H345.01L319.876 117.145L294.856 54.1007H277V138.616H294.856ZM387.106 72.6027C392.565 72.6027 397 68.1485 397 62.5522C397 56.956 392.565 52.616 387.106 52.616C381.533 52.616 377.097 56.956 377.097 62.5522C377.097 68.1485 381.533 72.6027 387.106 72.6027ZM378.462 138.616H395.976V81.5111H378.462V138.616Z" fill="#FFE7EB"/>
<path d="M251.63 43H235.63V251H251.63V43Z" fill="#FFE7EB"/>
</svg>
