<svg width="128" height="147" viewBox="0 0 128 147" fill="none" xmlns="http://www.w3.org/2000/svg">
<path fill-rule="evenodd" clip-rule="evenodd" d="M54.7187 56.6225C55.0846 56.1212 55.7166 55.8867 56.3127 56.0595C74.9061 61.4486 93.3792 82.8394 93.3792 102.928C93.3792 127.179 73.6858 146.875 49.4297 146.875C25.1735 146.875 5.48145 127.179 5.48145 102.928C5.48145 94.1454 8.06316 85.9613 12.5074 79.0935C12.5204 79.0735 12.5066 79.0469 12.4828 79.046C12.4601 79.0452 12.4385 79.0355 12.449 79.0154C12.9955 77.9755 22.2388 60.2236 25.0768 54.7638C25.5074 53.9353 26.3481 52.4572 26.8417 51.6647C28.6903 48.6967 32.7544 42.1752 34.4116 39.5435C34.8216 38.8923 35.4575 37.9196 35.8829 37.2784C38.4955 33.3402 41.2005 29.4652 43.9859 25.6706C44.5446 24.911 45.1127 24.1396 45.6899 23.3615C52.4138 14.3087 60.5472 4.42235 72.9632 1.12646C91.8297 -3.88011 109.511 8.55579 114.411 23.5372C121.705 45.8332 127.142 131.941 127.907 144.571C127.96 145.44 127.259 146.112 126.389 146.1L111.998 145.903C111.21 145.892 110.567 145.32 110.521 144.533C109.85 132.946 104.858 50.2514 97.8865 28.9414C95.4704 21.5531 86.728 15.4619 77.4229 17.9309C68.0135 20.4276 62.9276 29.2518 57.999 35.9624C55.4783 39.3943 53.0287 42.8973 50.6586 46.456C50.2013 47.1427 49.4972 48.2674 49.0679 48.972C47.3258 51.831 43.1978 58.5551 42.8775 59.0768C42.8642 59.0984 42.8505 59.1194 42.8362 59.1404C42.113 60.1946 41.3976 61.2551 40.6895 62.321C40.2574 62.9712 39.6011 63.9766 39.1854 64.6374C37.2393 67.731 32.126 75.9454 31.9197 76.2768C31.9116 76.2898 31.917 76.2815 31.9086 76.2942C31.6399 76.6991 19.9081 94.424 19.9081 102.928C19.9081 119.221 33.1365 132.449 49.4297 132.449C65.7229 132.449 78.9513 119.221 78.9513 102.928C78.9513 88.2016 64.5753 70.1421 50.0725 67.2835C48.9476 67.0618 48.3154 65.7606 48.9558 64.8096C50.791 62.0838 52.6805 59.3982 54.6183 56.76C54.6517 56.7142 54.6852 56.6684 54.7187 56.6225Z" fill="#FF8C42"/>
<path fill-rule="evenodd" clip-rule="evenodd" d="M19.4135 50.8451C19.052 51.3277 18.4371 51.5451 17.8495 51.4096C16.9113 51.1932 15.9683 51.0003 15.0294 50.8367C12.5847 50.4097 8.84237 50.5699 7.08662 50.6799C6.49383 50.717 5.93207 50.419 5.64719 49.8978C4.49176 47.784 1.51112 42.3064 0.413627 40.0527C0.135661 39.482 0.398103 38.9355 1.0065 38.7541C5.81735 37.3196 11.9522 37.3111 18.2303 38.4064C20.5145 38.8044 22.8201 39.3388 25.0643 39.9555C26.069 40.2315 26.4641 41.4321 25.8395 42.266L19.4135 50.8451Z" fill="#FF8C42"/>
</svg>
